<svg xmlns="http://www.w3.org/2000/svg" viewBox="0 0 432 72" role="img" aria-label="MyTimeBooked">
<defs><linearGradient id="pinGradb" x1="0" y1="0" x2="0" y2="1">
  <stop offset="0" stop-color="#17877B"/><stop offset="1" stop-color="#0E5E56"/>
</linearGradient></defs>
<g>
  <path d="M 17.99 50.49 A 26 26 0 1 1 50.01 50.49 Q 41.28 60.68 34.00 70.30 Q 26.72 60.68 17.99 50.49 Z" fill="url(#pinGradb)"/>
  <circle cx="34" cy="30" r="17.68" fill="#FFFFFF"/>
  <circle cx="34.00" cy="15.86" r="1.43" fill="#0E5E56" opacity="0.35"/><circle cx="48.14" cy="30.00" r="1.43" fill="#0E5E56" opacity="0.35"/><circle cx="34.00" cy="44.14" r="1.43" fill="#0E5E56" opacity="0.35"/><circle cx="19.86" cy="30.00" r="1.43" fill="#0E5E56" opacity="0.35"/>
  <path d="M 25.51 30.00 L 32.23 36.72 L 43.19 22.57"
        fill="none" stroke="#F6A821" stroke-width="4.16"
        stroke-linecap="round" stroke-linejoin="round"/>
  <circle cx="32.23" cy="36.72" r="1.75" fill="#F6A821"/>
</g>
<g transform="translate(74,46)"><path d="M6.348 -32.246Q6.992 -32.246 7.705 -31.901000000000003Q8.418 -31.556 8.786 -31.003999999999998L19.964 -13.799999999999999L17.664 -13.892L29.118 -31.003999999999998Q29.992 -32.246 31.372 -32.246Q32.476 -32.246 33.349999999999994 -31.464Q34.224 -30.682 34.224 -29.439999999999998V-2.806Q34.224 -1.6099999999999999 33.44199999999999 -0.8049999999999999Q32.66 0.0 31.372 0.0Q30.084 0.0 29.279 -0.8049999999999999Q28.474 -1.6099999999999999 28.474 -2.806V-24.472L30.268 -24.058L20.884 -9.752Q20.47 -9.246 19.848999999999997 -8.878Q19.227999999999998 -8.51 18.584 -8.556Q17.986 -8.51 17.365000000000002 -8.878Q16.744 -9.246 16.33 -9.752L7.544 -23.644L8.74 -26.082V-2.806Q8.74 -1.6099999999999999 8.004 -0.8049999999999999Q7.268 0.0 6.072 0.0Q4.922 0.0 4.186 -0.8049999999999999Q3.4499999999999997 -1.6099999999999999 3.4499999999999997 -2.806V-29.439999999999998Q3.4499999999999997 -30.59 4.301 -31.418Q5.152 -32.246 6.348 -32.246Z" fill="#FFFFFF"/><path d="M58.926 -24.61Q60.122 -24.61 60.903999999999996 -23.805Q61.686 -23.0 61.686 -21.804V-2.254Q61.686 1.978 60.099000000000004 4.485Q58.512 6.992 55.844 8.096Q53.176 9.2 49.864 9.2Q48.391999999999996 9.2 46.736 8.969999999999999Q45.08 8.74 44.022 8.28Q42.641999999999996 7.6819999999999995 42.113 6.785Q41.584 5.888 41.906 4.876Q42.32 3.542 43.239999999999995 3.059Q44.16 2.576 45.172 2.944Q45.908 3.174 47.104 3.657Q48.3 4.14 49.864 4.14Q51.98 4.14 53.382999999999996 3.5649999999999995Q54.786 2.9899999999999998 55.499 1.633Q56.212 0.276 56.212 -2.07V-5.152L57.178 -4.048Q56.396 -2.53 55.223 -1.541Q54.05 -0.552 52.44 -0.04600000000000004Q50.83 0.45999999999999996 48.76 0.45999999999999996Q46.322 0.45999999999999996 44.505 -0.667Q42.688 -1.794 41.676 -3.795Q40.664 -5.796 40.664 -8.372V-21.804Q40.664 -23.0 41.446 -23.805Q42.228 -24.61 43.424 -24.61Q44.62 -24.61 45.402 -23.805Q46.184 -23.0 46.184 -21.804V-10.028Q46.184 -7.038 47.495 -5.819Q48.806 -4.6 51.152 -4.6Q52.762 -4.6 53.866 -5.221Q54.97 -5.842 55.568 -7.061Q56.166 -8.28 56.166 -10.028V-21.804Q56.166 -23.0 56.948 -23.805Q57.730000000000004 -24.61 58.926 -24.61Z" fill="#FFFFFF"/><path d="M79.028 0.0Q77.74000000000001 0.0 76.912 -0.8049999999999999Q76.084 -1.6099999999999999 76.084 -2.806V-29.486H82.064V-2.806Q82.064 -1.6099999999999999 81.213 -0.8049999999999999Q80.362 0.0 79.028 0.0ZM68.862 -26.91Q67.666 -26.91 66.86099999999999 -27.646Q66.056 -28.381999999999998 66.056 -29.578Q66.056 -30.774 66.86099999999999 -31.487000000000002Q67.666 -32.2 68.862 -32.2H89.286Q90.482 -32.2 91.287 -31.464Q92.092 -30.727999999999998 92.092 -29.532Q92.092 -28.336 91.287 -27.622999999999998Q90.482 -26.91 89.286 -26.91Z" fill="#FFFFFF"/><path d="M101.66000000000001 -2.806Q101.66000000000001 -1.6099999999999999 100.87800000000001 -0.8049999999999999Q100.096 0.0 98.9 0.0Q97.70400000000001 0.0 96.92200000000001 -0.8049999999999999Q96.14000000000001 -1.6099999999999999 96.14000000000001 -2.806V-21.804Q96.14000000000001 -23.0 96.92200000000001 -23.805Q97.70400000000001 -24.61 98.9 -24.61Q100.096 -24.61 100.87800000000001 -23.805Q101.66000000000001 -23.0 101.66000000000001 -21.804ZM98.85400000000001 -27.599999999999998Q97.29 -27.599999999999998 96.64600000000002 -28.105999999999998Q96.00200000000001 -28.612 96.00200000000001 -29.9V-30.774Q96.00200000000001 -32.108 96.715 -32.590999999999994Q97.42800000000001 -33.074 98.9 -33.074Q100.51000000000002 -33.074 101.15400000000002 -32.568Q101.79800000000002 -32.062 101.79800000000002 -30.774V-29.9Q101.79800000000002 -28.566 101.108 -28.083Q100.418 -27.599999999999998 98.85400000000001 -27.599999999999998Z" fill="#FFFFFF"/><path d="M120.244 -25.07Q123.924 -25.07 125.672 -23.299Q127.42 -21.528 127.97200000000001 -18.722L127.19 -19.136L127.558 -19.872Q128.11 -20.93 129.26 -22.149Q130.41 -23.368 132.043 -24.219Q133.676 -25.07 135.7 -25.07Q139.012 -25.07 140.737 -23.644Q142.462 -22.218 143.106 -19.849Q143.75 -17.48 143.75 -14.581999999999999V-2.806Q143.75 -1.6099999999999999 142.96800000000002 -0.8049999999999999Q142.186 0.0 140.99 0.0Q139.794 0.0 139.012 -0.8049999999999999Q138.23000000000002 -1.6099999999999999 138.23000000000002 -2.806V-14.581999999999999Q138.23000000000002 -16.1 137.86200000000002 -17.319000000000003Q137.494 -18.538 136.52800000000002 -19.274Q135.562 -20.009999999999998 133.768 -20.009999999999998Q132.02 -20.009999999999998 130.77800000000002 -19.274Q129.536 -18.538 128.91500000000002 -17.319000000000003Q128.294 -16.1 128.294 -14.581999999999999V-2.806Q128.294 -1.6099999999999999 127.512 -0.8049999999999999Q126.73 0.0 125.534 0.0Q124.338 0.0 123.556 -0.8049999999999999Q122.774 -1.6099999999999999 122.774 -2.806V-14.581999999999999Q122.774 -16.1 122.406 -17.319000000000003Q122.03800000000001 -18.538 121.072 -19.274Q120.10600000000001 -20.009999999999998 118.312 -20.009999999999998Q116.56400000000001 -20.009999999999998 115.322 -19.274Q114.08 -18.538 113.459 -17.319000000000003Q112.83800000000001 -16.1 112.83800000000001 -14.581999999999999V-2.806Q112.83800000000001 -1.6099999999999999 112.05600000000001 -0.8049999999999999Q111.274 0.0 110.078 0.0Q108.882 0.0 108.1 -0.8049999999999999Q107.318 -1.6099999999999999 107.318 -2.806V-21.804Q107.318 -23.0 108.1 -23.805Q108.882 -24.61 110.078 -24.61Q111.274 -24.61 112.05600000000001 -23.805Q112.83800000000001 -23.0 112.83800000000001 -21.804V-19.826L112.148 -19.964Q112.562 -20.746 113.298 -21.643Q114.034 -22.54 115.09200000000001 -23.322Q116.15 -24.104 117.438 -24.587Q118.726 -25.07 120.244 -25.07Z" fill="#FFFFFF"/><path d="M161.322 0.45999999999999996Q157.412 0.45999999999999996 154.537 -1.173Q151.662 -2.806 150.121 -5.612Q148.58 -8.418 148.58 -11.959999999999999Q148.58 -16.1 150.25900000000001 -19.021Q151.93800000000002 -21.942 154.65200000000002 -23.506Q157.366 -25.07 160.40200000000002 -25.07Q162.74800000000002 -25.07 164.841 -24.104Q166.934 -23.137999999999998 168.54399999999998 -21.459Q170.154 -19.78 171.097 -17.572Q172.04000000000002 -15.363999999999999 172.04000000000002 -12.879999999999999Q171.994 -11.776 171.166 -11.085999999999999Q170.33800000000002 -10.395999999999999 169.234 -10.395999999999999H151.662L150.282 -14.996H167.16400000000002L166.15200000000002 -14.076V-15.318Q166.06 -16.652 165.209 -17.71Q164.358 -18.768 163.09300000000002 -19.389Q161.828 -20.009999999999998 160.40200000000002 -20.009999999999998Q159.02200000000002 -20.009999999999998 157.82600000000002 -19.642Q156.63 -19.274 155.756 -18.4Q154.882 -17.526 154.376 -16.054Q153.87 -14.581999999999999 153.87 -12.328Q153.87 -9.844 154.905 -8.119Q155.94 -6.394 157.573 -5.497Q159.20600000000002 -4.6 161.04600000000002 -4.6Q162.74800000000002 -4.6 163.76000000000002 -4.8759999999999994Q164.77200000000002 -5.152 165.39300000000003 -5.543Q166.014 -5.934 166.52 -6.21Q167.348 -6.624 168.084 -6.624Q169.096 -6.624 169.763 -5.933999999999999Q170.43 -5.244 170.43 -4.324Q170.43 -3.082 169.142 -2.07Q167.946 -1.058 165.784 -0.29900000000000004Q163.622 0.45999999999999996 161.322 0.45999999999999996Z" fill="#FFFFFF"/></g>
<g transform="translate(247.88,46)"><path d="M17.848 -32.2Q22.264 -32.2 24.426000000000002 -30.130000000000003Q26.588 -28.06 26.588 -24.012Q26.588 -21.849999999999998 25.53 -20.217Q24.472 -18.584 22.402 -17.686999999999998Q20.332 -16.79 17.296 -16.79L17.48 -18.86Q18.906 -18.86 20.746 -18.469Q22.586 -18.078 24.311 -17.089Q26.035999999999998 -16.1 27.162999999999997 -14.329Q28.29 -12.558 28.29 -9.798Q28.29 -6.762 27.301000000000002 -4.83Q26.312 -2.898 24.701999999999998 -1.84Q23.092 -0.782 21.252 -0.391Q19.412 0.0 17.71 0.0H6.256Q5.06 0.0 4.255 -0.8049999999999999Q3.4499999999999997 -1.6099999999999999 3.4499999999999997 -2.806V-29.394Q3.4499999999999997 -30.59 4.255 -31.395000000000003Q5.06 -32.2 6.256 -32.2ZM17.02 -26.772H8.832L9.43 -27.508V-19.182L8.878 -19.596H17.158Q18.492 -19.596 19.55 -20.47Q20.608 -21.344 20.608 -23.0Q20.608 -24.977999999999998 19.619 -25.875Q18.63 -26.772 17.02 -26.772ZM17.387999999999998 -14.168H9.016L9.43 -14.536V-4.83L8.97 -5.29H17.71Q19.826 -5.29 21.067999999999998 -6.417Q22.31 -7.544 22.31 -9.798Q22.31 -11.868 21.482 -12.788Q20.654 -13.708 19.503999999999998 -13.937999999999999Q18.354 -14.168 17.387999999999998 -14.168Z" fill="#F6A821"/><path d="M56.994 -12.282Q56.994 -8.51 55.315 -5.635Q53.635999999999996 -2.76 50.806999999999995 -1.15Q47.977999999999994 0.45999999999999996 44.482 0.45999999999999996Q40.986 0.45999999999999996 38.157 -1.15Q35.327999999999996 -2.76 33.649 -5.635Q31.97 -8.51 31.97 -12.282Q31.97 -16.054 33.649 -18.929Q35.327999999999996 -21.804 38.157 -23.436999999999998Q40.986 -25.07 44.482 -25.07Q47.977999999999994 -25.07 50.806999999999995 -23.436999999999998Q53.635999999999996 -21.804 55.315 -18.929Q56.994 -16.054 56.994 -12.282ZM51.474000000000004 -12.282Q51.474000000000004 -14.628 50.531 -16.353Q49.587999999999994 -18.078 48.001 -19.043999999999997Q46.414 -20.009999999999998 44.482 -20.009999999999998Q42.55 -20.009999999999998 40.962999999999994 -19.043999999999997Q39.376 -18.078 38.43299999999999 -16.353Q37.489999999999995 -14.628 37.489999999999995 -12.282Q37.489999999999995 -9.982 38.43299999999999 -8.257Q39.376 -6.532 40.962999999999994 -5.566Q42.55 -4.6 44.482 -4.6Q46.414 -4.6 48.001 -5.566Q49.587999999999994 -6.532 50.531 -8.257Q51.474000000000004 -9.982 51.474000000000004 -12.282Z" fill="#F6A821"/><path d="M85.69800000000001 -12.282Q85.69800000000001 -8.51 84.019 -5.635Q82.34 -2.76 79.511 -1.15Q76.682 0.45999999999999996 73.186 0.45999999999999996Q69.69 0.45999999999999996 66.86099999999999 -1.15Q64.032 -2.76 62.353 -5.635Q60.67400000000001 -8.51 60.67400000000001 -12.282Q60.67400000000001 -16.054 62.353 -18.929Q64.032 -21.804 66.86099999999999 -23.436999999999998Q69.69 -25.07 73.186 -25.07Q76.682 -25.07 79.511 -23.436999999999998Q82.34 -21.804 84.019 -18.929Q85.69800000000001 -16.054 85.69800000000001 -12.282ZM80.178 -12.282Q80.178 -14.628 79.235 -16.353Q78.292 -18.078 76.705 -19.043999999999997Q75.118 -20.009999999999998 73.186 -20.009999999999998Q71.254 -20.009999999999998 69.667 -19.043999999999997Q68.08 -18.078 67.137 -16.353Q66.194 -14.628 66.194 -12.282Q66.194 -9.982 67.137 -8.257Q68.08 -6.532 69.667 -5.566Q71.254 -4.6 73.186 -4.6Q75.118 -4.6 76.705 -5.566Q78.292 -6.532 79.235 -8.257Q80.178 -9.982 80.178 -12.282Z" fill="#F6A821"/><path d="M93.748 0.0Q92.552 0.0 91.77000000000001 -0.8049999999999999Q90.98800000000001 -1.6099999999999999 90.98800000000001 -2.806V-31.233999999999998Q90.98800000000001 -32.43 91.77000000000001 -33.235Q92.552 -34.04 93.748 -34.04Q94.94400000000002 -34.04 95.72600000000001 -33.235Q96.50800000000001 -32.43 96.50800000000001 -31.233999999999998V-2.806Q96.50800000000001 -1.6099999999999999 95.72600000000001 -0.8049999999999999Q94.94400000000002 0.0 93.748 0.0ZM108.376 -24.61Q109.43400000000001 -24.61 110.21600000000001 -23.735999999999997Q110.99800000000002 -22.862 110.99800000000002 -22.034Q110.99800000000002 -20.93 109.894 -19.964L96.04800000000002 -7.2219999999999995L95.81800000000001 -13.57L106.352 -23.736Q107.22600000000001 -24.61 108.376 -24.61ZM109.066 -0.046Q107.87 -0.046 107.04200000000002 -0.966L98.53200000000001 -9.982L102.71800000000002 -13.846L110.99800000000002 -4.83Q111.87200000000001 -3.91 111.87200000000001 -2.76Q111.87200000000001 -1.564 110.92900000000002 -0.805Q109.98600000000002 -0.046 109.066 -0.046Z" fill="#F6A821"/><path d="M128.294 0.45999999999999996Q124.38400000000001 0.45999999999999996 121.50900000000001 -1.173Q118.63400000000001 -2.806 117.09300000000002 -5.612Q115.55200000000002 -8.418 115.55200000000002 -11.959999999999999Q115.55200000000002 -16.1 117.23100000000002 -19.021Q118.91000000000001 -21.942 121.62400000000002 -23.506Q124.33800000000002 -25.07 127.37400000000002 -25.07Q129.72000000000003 -25.07 131.81300000000002 -24.104Q133.906 -23.137999999999998 135.51600000000002 -21.459Q137.126 -19.78 138.06900000000002 -17.572Q139.01200000000003 -15.363999999999999 139.01200000000003 -12.879999999999999Q138.966 -11.776 138.138 -11.085999999999999Q137.31 -10.395999999999999 136.20600000000002 -10.395999999999999H118.63400000000001L117.25400000000002 -14.996H134.13600000000002L133.12400000000002 -14.076V-15.318Q133.032 -16.652 132.181 -17.71Q131.33 -18.768 130.065 -19.389Q128.8 -20.009999999999998 127.37400000000002 -20.009999999999998Q125.99400000000001 -20.009999999999998 124.79800000000002 -19.642Q123.60200000000002 -19.274 122.72800000000001 -18.4Q121.85400000000001 -17.526 121.34800000000001 -16.054Q120.84200000000001 -14.581999999999999 120.84200000000001 -12.328Q120.84200000000001 -9.844 121.87700000000001 -8.119Q122.91200000000002 -6.394 124.54500000000002 -5.497Q126.17800000000001 -4.6 128.01800000000003 -4.6Q129.72000000000003 -4.6 130.73200000000003 -4.8759999999999994Q131.74400000000003 -5.152 132.365 -5.543Q132.98600000000002 -5.934 133.49200000000002 -6.21Q134.32000000000002 -6.624 135.056 -6.624Q136.068 -6.624 136.735 -5.933999999999999Q137.40200000000002 -5.244 137.40200000000002 -4.324Q137.40200000000002 -3.082 136.11400000000003 -2.07Q134.918 -1.058 132.75600000000003 -0.29900000000000004Q130.59400000000002 0.45999999999999996 128.294 0.45999999999999996Z" fill="#F6A821"/><path d="M163.99000000000004 -34.04Q165.18600000000004 -34.04 165.96800000000002 -33.257999999999996Q166.75000000000003 -32.476 166.75000000000003 -31.233999999999998V-2.806Q166.75000000000003 -1.6099999999999999 165.96800000000002 -0.8049999999999999Q165.18600000000004 0.0 163.99000000000004 0.0Q162.79400000000004 0.0 162.01200000000003 -0.8049999999999999Q161.23000000000002 -1.6099999999999999 161.23000000000002 -2.806V-5.06L162.24200000000002 -4.646Q162.24200000000002 -4.048 161.598 -3.197Q160.95400000000004 -2.346 159.85000000000002 -1.518Q158.74600000000004 -0.69 157.25100000000003 -0.11499999999999999Q155.75600000000003 0.45999999999999996 154.00800000000004 0.45999999999999996Q150.83400000000003 0.45999999999999996 148.25800000000004 -1.173Q145.68200000000004 -2.806 144.18700000000004 -5.680999999999999Q142.69200000000004 -8.556 142.69200000000004 -12.282Q142.69200000000004 -16.054 144.18700000000004 -18.929Q145.68200000000004 -21.804 148.21200000000005 -23.436999999999998Q150.74200000000002 -25.07 153.82400000000004 -25.07Q155.80200000000002 -25.07 157.45800000000003 -24.472Q159.11400000000003 -23.874 160.33300000000003 -22.954Q161.55200000000002 -22.034 162.21900000000002 -21.091Q162.88600000000002 -20.148 162.88600000000002 -19.504L161.23000000000002 -18.906V-31.233999999999998Q161.23000000000002 -32.43 162.01200000000003 -33.235Q162.79400000000004 -34.04 163.99000000000004 -34.04ZM154.69800000000004 -4.6Q156.72200000000004 -4.6 158.24000000000004 -5.612Q159.75800000000004 -6.624 160.60900000000004 -8.372Q161.46000000000004 -10.12 161.46000000000004 -12.282Q161.46000000000004 -14.49 160.60900000000004 -16.238Q159.75800000000004 -17.986 158.24000000000004 -18.997999999999998Q156.72200000000004 -20.009999999999998 154.69800000000004 -20.009999999999998Q152.72000000000003 -20.009999999999998 151.20200000000003 -18.997999999999998Q149.68400000000003 -17.986 148.83300000000003 -16.238Q147.98200000000003 -14.49 147.98200000000003 -12.282Q147.98200000000003 -10.12 148.83300000000003 -8.372Q149.68400000000003 -6.624 151.20200000000003 -5.612Q152.72000000000003 -4.6 154.69800000000004 -4.6Z" fill="#F6A821"/></g>

</svg>